<svg xmlns="http://www.w3.org/2000/svg" width="42.396" height="49.89" viewBox="0 0 42.396 49.89">
  <g id="Translation_icon" transform="translate(-125.92 -284.055)">
    <path id="Soustraction_3" data-name="Soustraction 3" d="M-1274.488,49.9c-.254,0-.527-.3-.814-.88a7.549,7.549,0,0,0-1.395-1.975c4.528-.562,7.595-1.9,9.114-3.984h-2.972l-4.714.067c-.254,0-.382-.112-.382-.332V41.9l.613-1.6,4.484.063h4.051c.078-.379.156-.96.232-1.727h-3.187l-4.6.067c-.176,0-.282-.022-.315-.067a.137.137,0,0,1-.016-.029l1.043-2.717,3.887.056h3.3c.021-.309.032-.857.032-1.627h-2.589l-4.055.06,2.828-7.367,1.227.018h9.081l4.515-.067c.185,0,.3.029.332.084a.621.621,0,0,1,.05.315l-.067,2.208v2.192l.067,2.209a.612.612,0,0,1-.067.365.625.625,0,0,1-.316.049l-4.515-.067h-3.072c0,.762-.011,1.295-.033,1.627h3.819l4.615-.067a.609.609,0,0,1,.365.067.43.43,0,0,1,.049.265v2.125c0,.171-.021.268-.066.307a.623.623,0,0,1-.349.058l-4.615-.067h-3.951c-.076.756-.154,1.338-.232,1.727h5.478l4.715-.067c.231,0,.348.128.348.382v2.109c0,.22-.117.332-.348.332l-4.715-.067h-4.217c1.838,2.037,5.016,3.283,9.446,3.7a8.718,8.718,0,0,0-1.1,2.158,4.031,4.031,0,0,1-.332.78.4.4,0,0,1-.348.167,4.465,4.465,0,0,1-.714-.1c-4.328-.781-7.607-2.6-9.745-5.412-1.7,2.612-4.763,4.432-9.114,5.412A5.5,5.5,0,0,1-1274.488,49.9Zm11.753-20.487v2.524h4.6V29.411Zm-7.57,0v2.524h4.217V29.411Zm11.173-3.005h-2.573a.6.6,0,0,1-.365-.067.633.633,0,0,1-.05-.315c0-.041,0-.2.016-.548s.038-.673.05-.979h-4.516l.067,1.527c0,.169-.022.267-.067.3a.754.754,0,0,1-.348.05h-2.573a.541.541,0,0,1-.187-.029l2.791-7.271.136.013c.341.044.514.172.514.382a2.148,2.148,0,0,1-.166.515,5.362,5.362,0,0,0-.167,1.759h4.516a23.249,23.249,0,0,0-.167-2.822c1.167.033,2.261.1,3.254.2.363.045.547.162.547.349a1.042,1.042,0,0,1-.2.515,4.375,4.375,0,0,0-.2,1.759h.979l4.7-.067c.22,0,.332.123.332.365v2.109a.606.606,0,0,1-.066.365c-.033.034-.12.05-.266.05l-4.7-.067h-.979l.067,1.527a.524.524,0,0,1-.067.332A.6.6,0,0,1-1259.132,26.406Z" transform="translate(1419.798 277.692)" fill="#50514f" stroke="rgba(0,0,0,0)" stroke-width="1"/>
    <path id="Soustraction_4" data-name="Soustraction 4" d="M-1288.079,37.408a11.086,11.086,0,0,1-1.2-.049.914.914,0,0,1-.6-.241.653.653,0,0,1-.117-.539,5.479,5.479,0,0,1,.249-.93l6.624-19.058a1.679,1.679,0,0,1,.232-.457.835.835,0,0,1,.424-.265,3.353,3.353,0,0,1,.8-.116c.355-.017.813-.025,1.362-.025.636,0,1.161.008,1.561.025a4.179,4.179,0,0,1,.9.116.868.868,0,0,1,.465.274,1.622,1.622,0,0,1,.24.5l3.356,9.621-2.448,6.378-.076-.228h-8.068l-1.362,4.2a1.338,1.338,0,0,1-.175.39.712.712,0,0,1-.348.249,2.545,2.545,0,0,1-.68.124C-1287.217,37.4-1287.595,37.408-1288.079,37.408Zm7.719-17.482h0l-3.037,9.131h6.092l-3.038-9.131Zm9.879,17.307v0l.243-.632,0,.029a.573.573,0,0,1-.132.523.539.539,0,0,1-.113.081Z" transform="translate(1416.42 277.692)" fill="#50514f" stroke="rgba(0,0,0,0)" stroke-width="1"/>
    <line id="Ligne_1" data-name="Ligne 1" y1="53" transform="translate(154.427 284.43) rotate(22)" fill="none" stroke="#50514f" stroke-width="2"/>
  </g>
</svg>
